<?xml version="1.0" encoding="UTF-8" standalone="no"?>
        <svg 
    viewBox="14.501953125 -75.6591796875 433.447265625 52.8076171875"
    width="418.9453125"
    height="128.466796875"
   xmlns="http://www.w3.org/2000/svg"
   xmlns:svg="http://www.w3.org/2000/svg">
   <path d="M15.82-105.62L15.82-105.62Q16.55-106.64 19.12-107.01Q21.68-107.37 26.22-107.37L26.22-107.37Q29.15-107.37 33.25-107.23L33.25-107.23L49.37-107.23L49.07-109.86Q49.07-112.79 50.24-114.77Q51.42-116.75 53.32-116.89L53.32-116.89Q54.05-117.04 54.64-117.04L54.64-117.04Q56.84-117.04 58.74-115.28Q60.64-113.53 60.64-110.30L60.64-110.30Q60.64-110.16 60.64-110.01L60.64-110.01Q60.64-108.84 62.92-108.54Q65.19-108.25 74.85-108.25L74.85-108.25L89.06-108.25L89.65-111.62Q90.97-116.89 95.07-116.89Q99.17-116.89 99.90-111.62L99.90-111.62Q100.20-110.30 100.56-109.42Q100.93-108.54 101.51-108.25L101.51-108.25Q102.25-107.96 106.64-107.74Q111.04-107.52 117.04-107.52L117.04-107.52Q122.90-107.23 127.22-107.08Q131.54-106.93 132.13-106.64L132.13-106.64Q133.89-106.20 134.40-104.81Q134.91-103.42 134.91-102.54L134.91-102.54Q134.91-101.51 134.47-100.63L134.47-100.63Q134.18-99.02 131.32-98.51Q128.47-98.00 116.75-97.71L116.75-97.71L100.49-97.41L99.46-94.04Q98.58-92.14 97.78-91.33Q96.97-90.53 95.65-90.38L95.65-90.38Q95.21-90.38 94.78-90.38L94.78-90.38Q92.72-90.38 91.19-91.70Q89.65-93.02 88.92-95.65L88.92-95.65Q88.92-97.12 87.23-97.49Q85.55-97.85 81.74-97.85L81.74-97.85Q79.10-97.85 75.44-97.71L75.44-97.71L62.70-97.71L62.70-95.36Q62.55-93.46 60.94-91.48Q59.33-89.50 58.01-89.21L58.01-89.21Q55.66-89.21 53.54-90.97Q51.42-92.72 50.83-95.07L50.83-95.07L50.39-97.71L17.14-97.71L15.53-100.93Q14.50-102.69 14.50-103.49Q14.50-104.30 15.82-105.62ZM23.44-66.80L23.44-66.80Q25.63-69.43 32.37-76.32L32.37-76.32Q38.96-82.62 41.75-84.81Q44.53-87.01 45.70-87.01L45.70-87.01Q46.00-87.01 46.14-86.87L46.14-86.87Q46.88-86.87 50.83-86.50Q54.79-86.13 59.91-85.84L59.91-85.84Q64.89-85.55 68.85-85.33Q72.80-85.11 73.83-84.81L73.83-84.81Q75.88-84.52 76.25-83.06Q76.61-81.59 76.61-80.71L76.61-80.71Q76.61-79.10 75.73-76.90L75.73-76.90Q73.54-72.95 62.77-61.89Q52.00-50.83 42.19-42.63L42.19-42.63Q38.53-39.40 35.74-37.06Q32.96-34.72 32.37-33.84L32.37-33.84Q31.05-32.37 29.08-32.37Q27.10-32.37 25.34-33.84L25.34-33.84Q23.73-35.45 23.73-36.91L23.73-36.91Q23.73-37.35 24.02-38.53Q24.32-39.70 26.95-42.33L26.95-42.33L30.03-45.56L27.10-46.29Q25.63-46.88 24.83-47.53Q24.02-48.19 24.02-49.51L24.02-49.51Q23.88-50.10 23.88-50.54L23.88-50.54Q23.88-52.44 25.78-53.32Q27.69-54.20 33.98-54.49L33.98-54.49Q42.19-54.49 43.51-55.66Q44.82-56.84 44.82-57.57L44.82-57.57Q44.82-59.33 41.60-62.11L41.60-62.11Q40.58-63.13 39.77-64.60Q38.96-66.06 38.96-67.09L38.96-67.09Q38.96-69.29 37.94-69.29L37.94-69.29Q37.94-69.29 37.28-69.14Q36.62-68.99 33.98-66.36L33.98-66.36Q28.27-60.35 25.05-60.35L25.05-60.35Q22.85-60.35 21.83-63.13L21.83-63.13Q21.68-63.43 21.68-63.72L21.68-63.72Q21.68-64.75 23.44-66.80ZM31.64-27.83L31.64-27.83Q31.64-29.15 38.75-29.52Q45.85-29.88 72.22-30.18L72.22-30.18Q88.92-30.47 100.12-30.62Q111.33-30.76 112.06-31.05L112.06-31.05Q112.79-31.49 114.40-31.49L114.40-31.49Q116.02-31.49 119.60-30.98Q123.19-30.47 124.51-29.44L124.51-29.44Q125.24-28.13 125.24-26.81L125.24-26.81Q125.24-25.05 123.93-23.14L123.93-23.14Q123.34-21.97 119.97-21.61Q116.60-21.24 104.74-20.65L104.74-20.65Q96.97-20.51 91.70-20.36Q86.43-20.21 85.69-20.21L85.69-20.21Q84.96-20.21 84.67-17.07Q84.38-13.92 84.38-6.01L84.38-6.01Q84.38-3.66 84.38-1.61L84.38-1.61Q84.38 5.86 83.50 8.64Q82.62 11.43 79.10 11.43L79.10 11.43Q78.81 11.43 78.52 11.43L78.52 11.43Q78.22 11.43 78.08 11.43L78.08 11.43Q75 11.43 74.05 7.98Q73.10 4.54 73.10-6.45L73.10-6.45L73.10-19.92L54.05-19.92Q40.58-19.92 37.13-20.29Q33.69-20.65 32.67-22.27L32.67-22.27Q30.62-24.17 30.54-24.76Q30.47-25.34 30.47-25.34L30.47-25.34Q30.47-26.37 31.64-27.83ZM83.35-74.56L83.35-74.56Q85.11-75.29 85.25-75.66Q85.40-76.03 85.40-76.17L85.40-76.17Q85.40-76.76 84.38-77.34L84.38-77.34Q83.35-78.22 83.35-79.69L83.35-79.69Q83.35-80.13 83.57-81.37Q83.79-82.62 85.69-83.79L85.69-83.79Q86.72-84.23 90.31-84.74Q93.90-85.25 98.58-85.55L98.58-85.55Q103.13-85.69 106.64-85.69L106.64-85.69Q113.38-85.69 117.85-84.81Q122.31-83.94 122.31-81.15L122.31-81.15Q122.31-81.01 122.31-80.86L122.31-80.86Q122.31-78.96 119.53-74.63Q116.75-70.31 112.65-65.48L112.65-65.48Q109.72-62.40 109.28-61.60Q108.84-60.79 108.84-60.35L108.84-60.35Q108.84-59.77 109.42-59.18L109.42-59.18Q110.45-57.86 115.72-55.74Q121.00-53.61 130.22-50.54L130.22-50.54Q133.89-49.22 134.69-47.97Q135.50-46.73 135.50-46.00L135.50-46.00Q135.50-44.82 134.47-43.36L134.47-43.36Q133.15-41.02 131.47-40.87Q129.79-40.72 129.35-40.72L129.35-40.72Q126.56-40.72 121.88-42.33L121.88-42.33Q111.77-45.70 101.88-51.56Q91.99-57.42 84.08-65.04L84.08-65.04Q81.01-67.97 80.93-69.36Q80.86-70.75 80.86-70.90L80.86-70.90Q80.86-73.24 83.35-74.56ZM51.12-41.75L51.12-41.75Q51.12-44.38 53.32-46.00L53.32-46.00Q54.35-47.02 57.20-47.09Q60.06-47.17 61.82-47.17L61.82-47.17Q66.94-47.17 77.20-46.88L77.20-46.88Q91.26-46.58 95.73-46.14Q100.20-45.70 100.93-44.68L100.93-44.68Q102.54-43.21 102.54-41.60L102.54-41.60Q102.54-41.02 102.03-39.55Q101.51-38.09 98.14-37.06L98.14-37.06Q93.60-36.18 80.86-36.18L80.86-36.18Q78.22-36.18 67.97-36.33Q57.71-36.47 53.47-37.79L53.47-37.79Q51.12-39.11 51.12-41.75ZM101.22-11.87L101.22-11.87Q101.51-12.74 102.25-13.62L102.25-13.62Q102.83-14.06 103.86-14.65Q104.88-15.23 105.76-15.23L105.76-15.23Q108.11-14.94 114.33-10.33Q120.56-5.71 123.93-2.05L123.93-2.05Q125.24-0.73 125.24 0.07Q125.24 0.88 124.22 2.49L124.22 2.49Q122.90 5.13 121.44 5.35Q119.97 5.57 119.53 5.57L119.53 5.57Q117.48 5.57 114.99 4.10L114.99 4.10Q111.04 1.46 105.98-3.59Q100.93-8.64 100.78-10.11L100.78-10.11Q100.78-10.99 101.22-11.87ZM35.16-2.20L35.16-2.20Q37.21-4.83 43.80-12.30L43.80-12.30Q46.88-15.09 49.80-15.09L49.80-15.09Q50.10-15.09 51.93-14.87Q53.76-14.65 54.05-10.69L54.05-10.69Q53.76-7.32 48.93-1.61Q44.09 4.10 40.14 5.71L40.14 5.71Q39.40 5.86 38.67 5.86L38.67 5.86Q36.91 5.86 35.08 4.98Q33.25 4.10 33.25 1.76L33.25 1.76Q33.25 1.61 33.25 1.46L33.25 1.46Q33.25 0.29 35.16-2.20ZM42.92-71.92L42.92-71.92Q43.07-71.92 43.36-71.92L43.36-71.92Q44.38-71.92 45.63-71.26Q46.88-70.61 49.07-68.41L49.07-68.41Q50.68-66.80 51.86-65.77Q53.03-64.75 53.32-64.75L53.32-64.75Q54.79-65.77 58.89-70.83Q62.99-75.88 62.99-76.61L62.99-76.61Q62.70-77.20 60.50-77.27Q58.30-77.34 54.79-77.34L54.79-77.34Q50.68-77.34 48.41-76.98Q46.14-76.61 44.09-75.59L44.09-75.59Q41.16-73.97 41.02-73.32Q40.87-72.66 40.87-72.51L40.87-72.51Q40.87-71.92 42.04-71.92L42.04-71.92Q42.48-71.92 42.92-71.92ZM89.06-73.97L89.06-73.97Q89.36-73.97 90.82-73.02Q92.29-72.07 94.19-70.75L94.19-70.75Q95.95-69.43 97.56-68.41Q99.17-67.38 99.46-67.38L99.46-67.38Q100.78-67.97 103.27-71.56Q105.76-75.15 105.76-75.88L105.76-75.88Q105.76-76.03 105.76-76.03L105.76-76.03Q102.83-76.32 97.56-76.32Q92.29-76.32 90.38-76.03L90.38-76.03Q88.92-75.88 88.55-75.37Q88.18-74.85 88.18-74.56L88.18-74.56Q88.18-74.12 89.06-73.97ZM217.09-6.15L217.09-6.15Q217.82-9.67 221.48-17.87L221.48-17.87Q225.15-25.49 226.61-37.50Q228.08-49.51 228.37-76.17L228.37-76.17Q228.66-95.36 229.03-101.22Q229.39-107.08 230.42-107.23L230.42-107.23Q231.30-107.81 236.13-108.11Q240.97-108.40 251.22-108.40L251.22-108.40Q261.77-108.40 266.31-108.11Q270.85-107.81 271.29-107.23L271.29-107.23Q271.58-106.20 271.73-92.80Q271.88-79.39 271.88-59.62L271.88-59.62L271.88-13.18L275.24-8.20Q276.56-6.01 277.59-4.83Q278.61-3.66 279.05-3.66L279.05-3.66Q279.05-3.66 279.20-3.66L279.20-3.66Q279.49-3.96 279.79-5.13Q280.08-6.30 280.08-7.91L280.08-7.91Q280.08-11.57 281.91-13.77Q283.74-15.97 285.64-15.97L285.64-15.97Q286.23-15.97 286.82-15.82L286.82-15.82Q289.75-15.23 290.55-13.18Q291.36-11.13 291.36-7.03L291.36-7.03Q291.36-5.86 291.36-4.39L291.36-4.39Q291.06 1.32 290.41 4.47Q289.75 7.62 288.13 8.50L288.13 8.50Q286.67 9.23 283.89 9.23L283.89 9.23Q282.86 9.23 280.15 9.01Q277.44 8.79 274.22 7.18L274.22 7.18Q269.97 4.54 266.02-1.39Q262.06-7.32 261.04-12.60L261.04-12.60Q260.74-15.23 260.67-23.66Q260.60-32.08 260.60-36.77L260.60-36.77Q260.60-46.14 260.74-57.42L260.74-57.42L261.33-96.97L240.23-96.97L239.94-87.01Q239.94-82.47 239.79-77.86Q239.65-73.24 239.65-70.31L239.65-70.31Q238.33-49.07 237.52-39.04Q236.72-29.00 236.28-25.78L236.28-25.78Q234.96-20.80 230.71-10.55Q226.46-0.29 224.71 2.34L224.71 2.34Q223.68 3.08 222.66 3.08L222.66 3.08Q221.78 3.08 220.31 2.49Q218.85 1.90 217.24-0.44L217.24-0.44Q216.65-1.61 216.65-3.22L216.65-3.22Q216.65-4.54 217.09-6.15ZM166.26-52.73L166.26-52.73Q166.70-55.08 168.02-56.10L168.02-56.10Q168.75-57.42 172.56-57.86Q176.37-58.30 191.16-58.30L191.16-58.30Q203.03-58.30 208.15-58.01Q213.28-57.71 213.87-56.98L213.87-56.98Q215.19-56.40 215.33-54.42Q215.48-52.44 215.48-48.93L215.48-48.93Q215.48-46.44 215.48-43.21L215.48-43.21Q215.48-41.75 215.48-40.43L215.48-40.43Q215.48-30.32 212.77-28.56Q210.06-26.81 200.54-26.81L200.54-26.81Q196.29-26.81 190.58-27.10L190.58-27.10Q177.39-27.10 173.22-27.54Q169.04-27.98 168.16-29.00L168.16-29.00Q167.43-29.74 166.92-32.52Q166.41-35.30 166.41-42.48L166.41-42.48Q166.11-47.02 166.11-49.66L166.11-49.66Q166.11-51.71 166.26-52.73ZM162.89-90.53L162.89-90.53Q163.48-100.20 165.09-102.54L165.09-102.54Q166.70-103.71 168.02-103.71L168.02-103.71Q169.34-103.71 170.87-102.17Q172.41-100.63 173.29-94.34L173.29-94.34L174.02-87.74L179.30-88.04L184.57-88.04L184.57-99.17Q184.57-104.88 184.94-107.96Q185.30-111.04 185.89-111.47L185.89-111.47Q187.50-113.09 189.99-113.09Q192.48-113.09 193.51-111.47L193.51-111.47Q193.80-110.74 194.17-107.15Q194.53-103.56 194.82-99.17L194.82-99.17Q194.82-94.63 195.12-91.63Q195.41-88.62 195.70-88.33L195.70-88.33Q195.85-88.18 196.73-88.18L196.73-88.18Q197.17-88.18 198.41-88.26Q199.66-88.33 202.29-88.33L202.29-88.33L208.30-89.06L208.30-96.97Q208.30-103.27 209.18-104.88Q210.06-106.49 211.82-106.49L211.82-106.49Q212.70-106.49 213.87-106.20L213.87-106.20Q216.21-105.76 217.24-102.32Q218.26-98.88 218.85-89.65L218.85-89.65Q219.29-86.13 219.29-83.79L219.29-83.79Q219.29-82.76 219.07-81.08Q218.85-79.39 218.26-78.52L218.26-78.52Q218.12-77.78 213.65-77.42Q209.18-77.05 202.00-77.05L202.00-77.05Q197.31-77.05 190.87-77.20L190.87-77.20Q176.66-77.20 170.36-77.49Q164.06-77.78 163.48-78.22L163.48-78.22Q162.60-79.98 162.60-84.52L162.60-84.52Q162.60-87.01 162.89-90.53ZM162.01-0.59L162.01-0.59Q163.77-1.76 169.48-2.34L169.48-2.34Q172.71-2.93 174.98-3.30Q177.25-3.66 177.39-3.66L177.39-3.66Q177.39-3.96 177.32-4.32Q177.25-4.69 176.66-5.27L176.66-5.27Q175.63-6.88 173.80-11.72Q171.97-16.55 171.97-18.46L171.97-18.46Q171.97-19.78 173.88-21.09Q175.78-22.41 177.10-22.41L177.10-22.41Q177.39-22.41 177.69-22.41L177.69-22.41Q181.20-21.53 183.25-18.24Q185.30-14.94 186.47-9.23L186.47-9.23Q186.91-5.57 187.50-5.05Q188.09-4.54 188.96-4.54L188.96-4.54Q189.84-4.54 191.46-4.98L191.46-4.98Q193.80-5.27 194.60-6.15Q195.41-7.03 196.14-10.99L196.14-10.99Q196.73-13.62 197.24-15.75Q197.75-17.87 198.05-18.90L198.05-18.90Q198.05-19.78 198.71-20.80Q199.37-21.83 199.80-22.41L199.80-22.41Q201.27-23.88 202.88-23.88L202.88-23.88Q203.03-23.88 203.98-23.80Q204.93-23.73 206.40-22.12L206.40-22.12Q207.28-21.09 207.57-19.70Q207.86-18.31 207.86-16.55L207.86-16.55Q207.86-15.23 207.71-13.48L207.71-13.48Q207.71-11.72 207.71-10.40L207.71-10.40Q207.71-8.35 207.86-7.32Q208.01-6.30 209.33-6.01L209.33-6.01Q211.52-5.57 213.50-3.66Q215.48-1.76 215.48-0.29L215.48-0.29Q215.63 0.15 215.63 0.44L215.63 0.44Q215.63 3.08 208.52 4.61Q201.42 6.15 174.32 8.20L174.32 8.20Q170.65 8.50 168.02 8.50L168.02 8.50Q164.79 8.50 162.52 7.84Q160.25 7.18 160.25 3.66L160.25 3.66Q160.25 0.59 162.01-0.59ZM158.79-66.36L158.79-66.36Q158.64-66.94 158.64-67.53L158.64-67.53Q158.64-68.26 158.94-69.21Q159.23-70.17 160.11-70.90L160.11-70.90Q160.25-71.92 164.65-72.14Q169.04-72.36 175.34-72.36L175.34-72.36Q181.64-72.36 191.16-72.22L191.16-72.22L220.75-71.92L220.90-68.26Q221.19-67.38 221.19-66.50L221.19-66.50Q221.19-63.43 216.58-62.40Q211.96-61.38 190.14-61.38L190.14-61.38Q182.23-61.23 176.51-61.23L176.51-61.23Q166.99-61.23 162.89-61.82Q158.79-62.40 158.79-65.63L158.79-65.63Q158.79-65.92 158.79-66.36ZM175.05-47.75L175.05-45.85Q175.34-44.82 175.49-42.99Q175.63-41.16 175.63-39.55L175.63-39.55L175.63-35.30L206.25-35.30L205.66-42.19L205.37-49.07L190.58-49.22Q186.33-49.37 183.11-49.37L183.11-49.37Q181.35-49.37 178.49-49.29Q175.63-49.22 175.34-49.07L175.34-49.07Q175.05-48.49 175.05-47.75L175.05-47.75ZM317.58-69.29L317.58-69.29Q318.75-71.34 322.41-71.63L322.41-71.63Q323.88-71.78 327.69-71.78L327.69-71.78Q329.59-71.78 334.57-71.70Q339.55-71.63 349.37-71.34L349.37-71.34Q363.57-70.90 368.33-70.46Q373.10-70.02 373.83-68.99L373.83-68.99Q375.15-68.55 375.37-65.48Q375.59-62.40 375.59-59.47L375.59-59.47Q375.59-53.47 375.15-41.89L375.15-41.89Q375.15-28.42 374.78-22.19Q374.41-15.97 373.83-15.53L373.83-15.53Q373.39-14.65 369.07-14.50Q364.75-14.36 360.50-14.36L360.50-14.36Q355.08-14.36 346.73-14.50L346.73-14.50Q328.86-14.50 324.24-14.87Q319.63-15.23 319.34-16.55L319.34-16.55Q318.31-17.58 317.87-21.53Q317.43-25.49 317.43-37.65L317.43-37.65Q317.43-45.85 317.29-52.59Q317.14-59.33 317.14-61.67L317.14-61.67Q316.85-63.87 316.85-65.48L316.85-65.48Q316.85-67.97 317.58-69.29ZM376.46-81.45L376.46-81.45Q377.64-82.47 379.39-82.76Q381.15-83.06 384.38-83.06L384.38-83.06Q385.69-83.06 387.30-83.06L387.30-83.06L396.24-83.06L396.53-88.04Q396.53-95.65 397.34-100.78Q398.14-105.91 399.76-107.23L399.76-107.23Q401.22-108.40 402.25-108.40L402.25-108.40Q402.39-108.40 403.05-108.33Q403.71-108.25 405.47-106.93L405.47-106.93Q407.08-106.49 407.45-104.66Q407.81-102.83 407.81-99.46L407.81-99.46Q407.81-97.27 407.67-94.04L407.67-94.04L407.67-83.06L419.53-83.06Q425.83-83.06 428.83-82.62Q431.84-82.18 432.71-81.74L432.71-81.74Q433.45-81.15 433.45-77.56Q433.45-73.97 432.71-64.31L432.71-64.31Q429.49-12.89 426.42-2.27Q423.34 8.35 418.95 8.35L418.95 8.35Q416.46 8.35 413.23 5.57L413.23 5.57Q406.64 0.88 404.88-2.27Q403.13-5.42 403.13-7.03L403.13-7.03Q403.13-8.94 404.44-10.25L404.44-10.25Q405.76-11.57 407.37-11.57L407.37-11.57Q407.67-11.57 408.84-11.43Q410.01-11.28 412.94-9.38L412.94-9.38Q414.55-8.06 415.36-7.62Q416.16-7.18 416.60-7.18L416.60-7.18Q416.75-7.18 416.89-7.32L416.89-7.32Q417.33-8.06 418.29-15.97Q419.24-23.88 419.97-34.28L419.97-34.28Q420.56-39.70 420.92-45.92Q421.29-52.15 421.58-55.81L421.58-55.81Q421.88-59.47 422.17-62.92Q422.46-66.36 422.46-68.26L422.46-68.26L422.46-71.92L404.74-71.92L401.51-56.69Q398.14-40.58 395.80-32.67Q393.46-24.76 391.26-24.17L391.26-24.17Q390.38-23.73 389.50-23.73L389.50-23.73Q389.36-23.73 388.77-23.80Q388.18-23.88 387.01-24.17L387.01-24.17Q384.96-25.20 384.96-28.27Q384.96-31.35 386.87-37.35L386.87-37.35Q389.21-45.85 391.11-56.32Q393.02-66.80 393.02-69.87L393.02-69.87Q393.02-70.75 392.87-71.19L392.87-71.19Q392.29-71.19 390.31-71.26Q388.33-71.34 385.69-71.34L385.69-71.34Q381.59-71.34 379.83-71.92Q378.08-72.51 376.76-73.83L376.76-73.83Q374.56-75.88 374.56-77.93L374.56-77.93Q374.56-79.69 376.46-81.45ZM318.16-104.88L318.16-104.88Q318.31-106.93 318.46-107.81L318.46-107.81Q318.46-108.84 322.63-109.13Q326.81-109.42 336.91-109.42L336.91-109.42Q340.87-109.42 346.00-109.42L346.00-109.42Q351.27-109.42 355.52-109.42L355.52-109.42Q365.92-109.42 369.80-109.13Q373.68-108.84 373.68-107.52L373.68-107.52Q374.12-106.49 374.19-105.40Q374.27-104.30 374.27-103.86L374.27-103.86Q374.27-102.69 374.12-101.51L374.12-101.51Q373.83-99.90 373.61-96.09Q373.39-92.29 373.39-88.33L373.39-88.33Q373.39-81.88 372.95-80.05Q372.51-78.22 370.75-76.90L370.75-76.90Q369.43-75.59 367.60-75.51Q365.77-75.44 364.16-75.44L364.16-75.44Q360.94-75.44 355.22-75.59L355.22-75.59Q335.89-76.46 328.78-77.12Q321.68-77.78 321.39-78.52L321.39-78.52Q320.95-79.25 320.51-81.52Q320.07-83.79 319.78-86.72L319.78-86.72Q319.63-89.79 319.19-93.53Q318.75-97.27 318.46-99.90L318.46-99.90Q318.16-102.10 318.16-103.86L318.16-103.86Q318.16-104.30 318.16-104.88ZM329.00-95.36L329.00-95.36Q329.30-94.63 329.59-93.16Q329.88-91.70 329.88-90.38L329.88-90.38Q329.88-88.48 330.40-88.04Q330.91-87.60 332.08-87.60L332.08-87.60Q332.67-87.60 333.54-87.74L333.54-87.74Q335.16-87.74 339.77-87.45Q344.38-87.16 349.95-87.01L349.95-87.01L362.84-86.43L362.55-92.43L362.55-98.58L346.00-98.88L333.98-98.88Q329.00-98.88 328.86-98.58L328.86-98.58Q328.56-98.29 328.56-97.34Q328.56-96.39 329.00-95.36ZM354.93-10.99L354.93-10.99Q356.40-12.30 357.42-12.30L357.42-12.30Q357.57-12.30 358.23-12.16Q358.89-12.01 362.26-9.38L362.26-9.38Q364.16-7.91 366.50-6.15Q368.85-4.39 370.75-2.78L370.75-2.78Q372.36-1.46 373.75-0.07Q375.15 1.32 375.44 2.20L375.44 2.20Q375.73 3.08 375.73 3.81L375.73 3.81Q375.73 4.98 374.71 6.59Q373.68 8.20 371.48 8.20L371.48 8.20Q369.43 7.91 364.01 4.76Q358.59 1.61 355.37-1.46L355.37-1.46Q352.73-3.96 352.66-5.35Q352.59-6.74 352.59-6.88L352.59-6.88Q352.59-9.38 354.93-10.99ZM316.70 1.32L324.02-5.71Q328.56-9.96 330.40-11.13Q332.23-12.30 333.54-12.30L333.54-12.30Q333.84-12.30 334.13-12.30L334.13-12.30Q337.94-12.01 337.94-8.79L337.94-8.79Q337.94-8.06 337.21-5.20Q336.47-2.34 330.18 3.81L330.18 3.81Q326.95 6.59 325.56 7.32Q324.17 8.06 323.00 8.06L323.00 8.06Q322.71 8.06 322.27 7.91L322.27 7.91Q320.36 7.91 319.41 7.18Q318.46 6.45 317.72 4.54L317.72 4.54L316.70 1.32ZM335.89-30.03L327.98-30.47L328.56-23.73L364.89-23.14L364.89-29.74L354.35-29.74Q349.95-29.74 344.68-29.88Q339.40-30.03 335.89-30.03L335.89-30.03ZM327.98-39.26L364.89-39.26L364.89-41.89Q364.89-43.51 364.53-44.24Q364.16-44.97 362.84-45.26L362.84-45.26Q361.96-45.56 360.94-45.63Q359.91-45.70 359.47-45.70L359.47-45.70Q358.45-45.70 357.57-45.56L357.57-45.56Q355.96-45.56 351.34-45.26Q346.73-44.97 341.46-44.97L341.46-44.97L328.86-44.53L328.27-41.89L327.98-39.26ZM328.42-55.96L328.42-55.96Q328.86-55.37 329.30-55.37L329.30-55.37Q329.88-55.37 335.16-55.22Q340.43-55.08 347.75-54.79L347.75-54.79L365.19-54.20L364.60-59.47L347.46-59.77L335.01-59.77Q329.88-59.77 329.30-59.47L329.30-59.47Q328.86-59.33 328.42-58.67Q327.98-58.01 327.98-57.13L327.98-57.13Q327.98-56.40 328.42-55.96Z"/>
    </svg>
        