<svg width="172" height="172" version="1.1" xmlns="http://www.w3.org/2000/svg" xmlns:xlink="http://www.w3.org/1999/xlink"><path d="M150.84 145.56L150.84 145.56Q149.47 145.73 146.89 145.73L146.89 145.73Q116.10 145.73 109.56 110.98L109.56 110.98Q105.78 90.52 110.77 63.68L110.77 63.68Q113.18 51.81 113.52 47.17L113.52 47.17Q109.91 46.83 98.56 50.95L98.56 50.95Q96.84 51.47 95.98 51.81L95.98 51.81Q94.94 56.63 94.43 72.28L94.43 72.28Q94.26 76.58 93.91 79.68L93.91 79.68Q89.44 123.37 71.21 140.40L71.21 140.40Q69.83 141.94 67.42 142.12L67.42 142.12L67.77 139.88Q86.17 110.30 86.17 67.12L86.17 67.12Q86.17 53.36 83.08 47.69L83.08 47.69L82.73 47.00Q82.22 44.42 85.31 44.93L85.31 44.93L93.40 47.17Q97.70 47.17 113.35 39.09L113.35 39.09Q114.38 38.57 115.07 38.23L115.07 38.23Q124.36 38.23 130.20 45.11L130.20 45.11L130.20 46.48Q116.44 59.21 115.58 88.62L115.58 88.62L115.58 102.73Q115.93 116.49 126.08 127.50L126.08 127.50Q130.20 131.97 135.19 134.55L135.19 134.55Q140.52 134.89 142.42 132.14L142.42 132.14Q143.45 130.42 145.86 120.10L145.86 120.10Q146.54 117.00 147.23 115.28L147.23 115.28Q148.61 116.66 148.95 119.75L148.95 119.75Q150.50 131.80 152.74 140.22L152.74 140.22L153.08 141.43L153.08 141.60Q153.08 144.18 150.84 145.56ZM80.15 23.95L83.76 27.73Q83.76 29.63 81.18 33.58L81.18 33.58Q80.50 34.61 80.15 35.47L80.15 35.47L76.37 47.00Q74.99 50.27 72.24 52.16L72.24 52.16Q70.18 51.47 69.83 47.17L69.83 47.17Q69.66 46.14 69.49 45.62L69.49 45.62Q56.24 45.62 35.60 53.36L35.60 53.36Q26.83 56.63 21.84 59.90L21.84 59.90Q20.12 59.90 17.03 56.63L17.03 56.63Q16.34 55.94 16.00 55.60L16.00 55.60Q16.00 54.57 19.26 49.06L19.26 49.06Q25.46 39.09 21.67 29.63L21.67 29.63Q21.67 27.56 22.70 27.05L22.70 27.05Q27.00 27.91 30.44 32.89L30.44 32.89Q29.58 41.84 27.69 48.89L27.69 48.89L28.72 49.41Q33.37 49.06 46.10 44.59L46.10 44.59L45.24 22.40Q44.55 16.38 42.83 11.91L42.83 11.91Q42.66 7.09 52.98 13.29L52.98 13.29Q56.07 15.01 56.93 16.04L56.93 16.04Q52.80 34.79 51.77 43.39L51.77 43.39L68.46 40.46Q68.97 40.29 69.49 40.29L69.49 40.29Q75.16 31.17 72.93 24.47L72.93 24.47Q72.76 23.61 72.41 22.92L72.41 22.92Q72.07 16.38 80.15 23.95L80.15 23.95ZM70.69 62.82L70.69 62.82Q70.69 65.23 66.91 66.26L66.91 66.26L36.64 74.35Q33.71 75.21 28.55 72.97L28.55 72.97L25.46 71.08Q25.97 70.05 28.21 69.19L28.21 69.19L48.33 64.37L60.54 60.59Q61.75 60.24 62.61 60.24L62.61 60.24Q65.36 59.90 68.11 61.10L68.11 61.10Q69.66 61.96 70.69 62.82ZM72.76 120.61L72.76 120.61Q71.38 123.02 67.08 124.92L67.08 124.92Q64.67 125.95 52.98 129.90L52.98 129.90Q52.63 129.90 52.29 130.07L52.29 130.07Q29.07 138.16 16.51 144.52L16.51 144.52Q11.52 143.49 5.16 137.30L5.16 137.30Q5.16 134.03 6.54 133.52L6.54 133.52Q7.05 133.52 13.93 133.34L13.93 133.34Q15.31 133.34 16.34 133.17L16.34 133.17Q19.78 132.66 45.06 126.46L45.06 126.46Q47.13 125.95 48.85 125.43L48.85 125.43Q53.49 113.73 53.66 108.06L53.66 108.06Q53.66 106.00 53.32 103.76L53.32 103.76L52.80 103.24Q39.04 105.82 34.06 107.54L34.06 107.54L33.71 109.95Q30.62 109.95 28.72 106.86L28.72 106.86Q28.04 105.65 23.56 95.67L23.56 95.67Q21.50 91.03 19.26 88.28L19.26 88.28Q19.09 86.90 19.78 86.39L19.78 86.39Q20.12 86.04 20.81 85.87L20.81 85.87Q21.67 85.70 25.63 85.70L25.63 85.70Q30.44 85.53 37.15 83.63L37.15 83.63Q38.36 83.46 49.54 78.99L49.54 78.99Q60.03 75.03 67.08 78.99L67.08 78.99Q68.80 79.85 70.35 81.23L70.35 81.23Q71.72 82.43 71.72 85.87L71.72 85.87Q67.08 89.14 63.47 96.71L63.47 96.71L66.22 99.29Q66.56 99.80 66.56 100.32L66.56 100.32L65.36 101.01Q61.75 101.18 57.45 102.73L57.45 102.73Q63.30 105.13 63.98 109.61L63.98 109.61Q58.82 115.45 54.01 124.06L54.01 124.06Q55.38 124.40 70.86 119.75L70.86 119.75Q72.24 120.10 72.76 120.61ZM55.56 83.12L55.56 83.12L30.62 90.00L33.54 102.38Q47.47 99.29 56.07 96.19L56.07 96.19L58.48 88.11Q59.34 83.46 55.56 83.12ZM36.12 122.51L36.12 122.51Q35.09 124.40 32.68 124.40L32.68 124.40Q29.24 122.34 24.60 114.77L24.60 114.77L24.77 112.53Q32.68 112.53 35.60 117.52L35.60 117.52Q36.12 118.38 36.12 122.51Z" stroke="#000" fill="black" /></svg>