<svg width="172" height="172" version="1.1" xmlns="http://www.w3.org/2000/svg" xmlns:xlink="http://www.w3.org/1999/xlink"><path d="M148.61 59.68L148.61 59.68L148.44 60.72L148.26 60.89Q143.62 71.04 142.93 73.62L142.93 73.62Q142.42 76.02 140.70 91.16L140.70 91.16Q140.01 95.80 139.32 99.24L139.32 99.24Q135.02 118.51 132.78 124.53L132.78 124.53Q125.73 144.14 115.24 143.62L115.24 143.62Q112.32 140.52 104.58 127.28L104.58 127.28Q103.72 125.90 103.54 125.39L103.54 125.39Q104.58 125.39 111.46 127.62L111.46 127.62Q117.65 129.69 120.57 125.56L120.57 125.56Q127.11 115.93 131.58 88.58L131.58 88.58Q134.50 71.38 133.47 63.12L133.47 63.12Q133.13 61.06 131.92 60.72L131.92 60.72Q122.98 61.23 115.41 63.30L115.41 63.30Q105.44 105.78 84.11 128.31L84.11 128.31L77.40 134.85L75.85 135.88Q73.96 136.91 71.72 136.91L71.72 136.91L71.72 135.71Q98.73 100.79 106.81 65.36L106.81 65.36Q105.44 65.36 97.01 67.60L97.01 67.60Q88.24 69.83 84.80 64.33L84.80 64.33Q84.80 63.12 85.83 62.78L85.83 62.78L93.22 62.44L107.33 60.37L108.02 59.17Q108.02 56.76 110.42 44.03L110.42 44.03Q112.49 32.16 108.88 25.11L108.88 25.11Q108.53 20.12 116.96 25.11L116.96 25.11Q120.74 27.35 121.78 28.72L121.78 28.72Q122.81 30.27 122.64 32.85L122.64 32.85Q120.92 34.92 116.79 57.79L116.79 57.79Q118.16 57.62 131.41 52.80L131.41 52.80Q134.68 51.77 135.54 51.77L135.54 51.77Q137.60 51.77 143.28 54.70L143.28 54.70Q144.31 55.21 145.17 55.56L145.17 55.56Q148.09 57.62 148.61 59.68ZM84.45 17.89L84.45 17.89Q84.45 20.64 80.67 24.42L80.67 24.42Q78.60 26.49 77.92 27.69L77.92 27.69Q74.82 33.02 74.48 34.23L74.48 34.23Q77.40 35.43 76.20 37.67L76.20 37.67L47.47 43.34Q43.69 44.38 40.25 45.41L40.25 45.41L39.73 47.99Q37.67 47.99 34.92 44.55L34.92 44.55Q30.96 30.79 25.28 21.33L25.28 21.33Q25.28 19.61 26.32 19.09L26.32 19.09L33.71 20.12Q34.57 20.47 35.26 20.81L35.26 20.81Q57.96 14.62 70.18 10.66L70.18 10.66Q76.88 11.18 84.45 17.89ZM69.66 19.09L69.66 19.09Q69.49 17.37 66.05 17.37L66.05 17.37Q62.95 17.37 36.81 25.11L36.81 25.11Q37.84 30.10 40.08 40.08L40.08 40.08Q41.11 39.90 62.95 33.54L62.95 33.54Q64.16 33.20 65.19 32.85L65.19 32.85Q68.28 27.18 69.66 19.09ZM79.98 54.52L79.98 54.52L76.37 64.50Q76.02 65.36 76.02 66.39L76.02 66.39L77.06 99.42Q77.06 105.95 70.69 110.94L70.69 110.94Q68.97 110.25 66.74 106.30L66.74 106.30Q66.39 105.61 66.05 105.09L66.05 105.09Q41.62 107.84 33.20 109.39L33.20 109.39L30.96 112.66L30.44 112.83Q25.63 110.08 25.63 102.68L25.63 102.68L26.49 93.40Q27.86 74.99 27.00 65.70L27.00 65.70Q27.00 65.19 26.83 64.84L26.83 64.84L24.42 55.90L24.42 55.04Q26.49 54.35 30.27 56.42L30.27 56.42Q31.13 56.93 31.82 57.10L31.82 57.10Q50.40 53.84 64.50 47.47L64.50 47.47Q72.93 47.82 79.98 54.52ZM65.70 100.62L65.70 100.62Q67.77 88.92 67.42 69.66L67.42 69.66Q67.08 59.00 65.70 56.07L65.70 56.07Q64.33 53.49 61.06 53.66L61.06 53.66Q57.79 53.66 34.92 60.89L34.92 60.89L34.40 62.09L34.23 73.27Q52.80 64.16 60.20 69.49L60.20 69.49L61.23 70.52Q61.23 71.90 60.72 72.24L60.72 72.24Q60.03 72.76 38.87 76.71L38.87 76.71Q35.09 77.40 33.88 77.74L33.88 77.74L33.88 88.24Q48.16 83.08 53.84 82.90L53.84 82.90Q59.34 82.73 61.75 85.48L61.75 85.48Q61.75 87.38 60.37 87.72L60.37 87.72L33.88 92.54L33.71 104.06L45.58 101.82L57.10 99.07Q62.44 98.38 65.70 100.62ZM70.69 124.36L70.69 124.36Q70.69 129.86 69.83 130.89L69.83 130.89Q69.49 131.24 69.14 131.41L69.14 131.41Q66.74 131.41 64.84 129L64.84 129Q55.90 117.13 55.90 116.79L55.90 116.79Q55.90 116.10 56.76 114.90L56.76 114.90Q65.53 117.30 70.69 124.36ZM47.30 121.60L47.30 121.60Q34.40 134.85 28.90 138.98L28.90 138.98Q18.06 147.23 9.63 147.06L9.63 147.06L23.39 134.85Q33.54 124.87 35.78 116.10L35.78 116.10Q37.67 114.21 43.17 116.10L43.17 116.10Q47.82 117.65 47.64 120.40L47.64 120.40Q47.64 121.09 47.30 121.60Z" stroke="#000" fill="black" /></svg>