<svg width="172" height="172" version="1.1" xmlns="http://www.w3.org/2000/svg" xmlns:xlink="http://www.w3.org/1999/xlink"><path d="M133.82 37.15L134.16 39.56L132.44 40.42Q119.88 38.70 96.49 41.80L96.49 41.80L94.43 41.97Q89.78 51.26 88.06 53.49L88.06 53.49Q87.20 54.70 86.17 55.56L86.17 55.56Q81.87 56.07 87.89 40.94L87.89 40.94L84.62 38.70Q84.11 38.01 84.11 37.15L84.11 37.15L89.27 36.12Q90.99 26.66 90.64 24.25L90.64 24.25Q90.47 22.36 89.96 20.81L89.96 20.81Q89.96 19.44 91.16 18.58L91.16 18.58Q97.18 18.58 102.68 24.77L102.68 24.77Q102.51 26.66 99.07 31.99L99.07 31.99L97.87 34.74L97.87 35.09Q100.10 35.09 112.83 32.85L112.83 32.85Q126.42 30.62 132.61 35.95L132.61 35.95Q133.13 36.46 133.82 37.15L133.82 37.15ZM153.25 116.10L153.25 116.10Q138.29 120.23 129.34 119.37L129.34 119.37L128.31 119.37Q119.02 117.99 99.93 94.94L99.93 94.94L81.01 71.72Q77.74 68.11 75.34 65.88L75.34 65.88Q75.68 64.50 76.88 64.50L76.88 64.50Q83.59 64.50 90.13 72.58L90.13 72.58Q96.15 80.15 98.04 81.87L98.04 81.87L108.70 64.84Q108.70 64.33 107.67 62.26L107.67 62.26Q103.72 62.95 93.74 66.56L93.74 66.56Q88.41 66.56 87.55 62.78L87.55 62.78L108.02 56.76Q109.56 56.24 110.94 55.56L110.94 55.56Q116.79 56.76 124.70 63.64L124.70 63.64Q124.70 65.19 122.81 66.05L122.81 66.05Q115.76 70.00 102.51 81.87L102.51 81.87L100.28 83.76Q114.72 99.59 128.83 105.09L128.83 105.09L148.26 111.80Q151.53 113.18 152.74 114.21L152.74 114.21Q153.25 114.72 153.25 116.10ZM68.97 38.70L68.97 38.70Q68.97 40.76 66.74 41.62L66.74 41.62Q62.09 41.62 62.09 45.41L62.09 45.41L62.78 53.15L62.44 54.87Q62.44 55.90 59.86 55.90L59.86 55.90Q57.62 53.49 56.24 45.92L56.24 45.92Q56.07 45.24 56.07 44.55L56.07 44.55L29.41 50.74Q19.95 49.19 18.92 43.34L18.92 43.34Q20.47 43 29.93 42.83L29.93 42.83Q31.99 42.83 33.71 42.48L33.71 42.48L54.35 39.56Q52.98 33.71 48.33 27.52L48.33 27.52Q48.16 23.39 58.65 27.18L58.65 27.18Q60.03 27.69 60.37 27.69L60.37 27.69L61.92 29.58L62.09 38.18L67.08 37.67Q68.28 37.84 68.97 38.70ZM92.88 96.49L92.88 96.49Q92.88 99.07 91.16 99.59L91.16 99.59L85.48 100.45L70.00 103.72Q61.92 104.92 57.10 102.34L57.10 102.34L55.21 101.14Q54.35 100.62 54.35 99.59L54.35 99.59Q56.07 98.38 63.30 97.87L63.30 97.87Q65.19 97.70 66.39 97.35L66.39 97.35L79.98 93.74Q88.41 92.36 92.88 96.49ZM119.37 158.76L119.37 158.76Q116.96 158.58 114.55 156.00L114.55 156.00L102.34 143.10L95.12 136.22L94.77 135.88Q93.40 134.16 93.40 132.78L93.40 132.78L93.74 131.92L94.26 131.41L108.70 137.26Q121.43 143.62 121.95 153.60L121.95 153.60Q121.95 157.21 119.37 158.76ZM69.32 71.38L70.00 72.41Q69.66 73.10 66.39 76.37L66.39 76.37Q65.36 77.23 64.84 78.09L64.84 78.09Q50.05 99.07 46.78 103.20L46.78 103.20Q23.74 132.10 4.99 132.10L4.99 132.10L4.99 131.58Q39.56 109.91 52.80 83.25L52.80 83.25Q52.98 82.90 53.15 82.73L53.15 82.73Q56.24 76.88 56.76 73.62L56.76 73.62Q56.93 71.90 55.04 71.90L55.04 71.90L47.47 72.58Q45.24 72.41 44.03 71.04L44.03 71.04L35.60 80.15L43 82.90Q44.38 83.76 45.06 84.97L45.06 84.97Q45.41 85.83 45.58 86.86L45.58 86.86L45.41 88.92Q45.06 89.44 44.55 89.78L44.55 89.78Q41.28 89.61 36.12 84.45L36.12 84.45Q34.40 82.90 33.54 82.22L33.54 82.22L23.56 90.47L31.65 93.74Q33.54 94.94 34.40 96.66L34.40 96.66Q35.26 98.04 35.26 99.76L35.26 99.76Q35.26 101.82 34.06 102.68L34.06 102.68Q30.44 101.31 23.56 95.12L23.56 95.12Q21.67 93.40 20.47 92.36L20.47 92.36Q18.40 94.26 14.79 94.26L14.79 94.26L14.79 93.74Q28.38 79.98 28.55 79.64L28.55 79.64Q37.84 69.49 39.90 62.61L39.90 62.61L40.08 57.45Q40.42 56.59 41.28 56.42L41.28 56.42Q43.69 56.07 47.47 60.03L47.47 60.03Q49.19 61.58 49.71 62.78L49.71 62.78Q50.57 64.84 47.64 67.08L47.64 67.08L45.75 68.97Q46.96 68.97 55.56 66.74L55.56 66.74Q60.37 65.53 62.44 66.39L62.44 66.39Q66.56 67.94 69.32 71.38L69.32 71.38ZM109.56 116.96L109.56 116.96Q109.56 118.68 108.19 119.02L108.19 119.02Q107.16 119.37 99.24 119.20L99.24 119.20Q98.56 119.20 98.04 119.37L98.04 119.37Q85.14 119.37 74.82 120.57L74.82 120.57Q79.81 123.50 78.95 131.92L78.95 131.92Q78.43 138.29 78.43 138.98L78.43 138.98L79.12 148.78L79.12 148.95Q79.12 162.37 72.58 170.28L72.58 170.28Q70.00 170.28 66.91 165.81L66.91 165.81Q65.70 164.09 64.84 163.23L64.84 163.23L55.73 153.94L56.07 152.05L67.77 153.08L67.94 153.08L69.49 151.02Q71.21 137.77 69.66 128.48L69.66 128.48Q69.14 124.70 67.94 121.43L67.94 121.43Q66.74 121.43 55.04 123.50L55.04 123.50Q41.80 125.90 38.01 120.57L38.01 120.57Q38.36 119.88 38.87 119.54L38.87 119.54Q42.66 118.51 63.98 115.93L63.98 115.93Q67.42 115.58 69.66 115.24L69.66 115.24L91.33 111.28Q92.88 110.94 94.43 110.94L94.43 110.94Q99.59 110.42 104.75 113.00L104.75 113.00Q107.84 114.55 109.56 116.96ZM32.51 158.24L32.51 158.24Q29.93 158.24 29.07 156.86L29.07 156.86Q26.49 151.70 34.57 143.62L34.57 143.62Q41.97 136.05 42.14 135.71L42.14 135.71Q43.52 134.16 44.03 132.78L44.03 132.78Q45.41 131.41 46.78 132.78L46.78 132.78Q47.30 133.30 47.47 134.16L47.47 134.16Q47.47 136.74 46.44 138.80L46.44 138.80Q42.83 154.28 32.51 158.24Z" stroke="#000" fill="black" /></svg>